<svg width="48" height="48" viewBox="0 0 48 48" fill="none" xmlns="http://www.w3.org/2000/svg">
<path d="M36 2.42999H10C7.79086 2.42999 6 4.22085 6 6.42999V32.43C6 34.6391 7.79086 36.43 10 36.43H36C38.2091 36.43 40 34.6391 40 32.43V6.42999C40 4.22085 38.2091 2.42999 36 2.42999Z" fill="#5DDFA9"/>
<path d="M22.87 2.42999H36C38.21 2.42999 40 4.21999 40 6.42999V32.43C40 34.64 38.21 36.43 36 36.43H22.87V2.42999Z" fill="#5DDFA9"/>
<path d="M22.87 37.18H14.45L13.19 32.01C12.57 29.48 14.13 26.93 16.66 26.33L18.41 25.91L22.86 25.98V37.18H22.87Z" fill="#0050C7"/>
<path d="M22.87 37.18H31.29L32.55 32.01C33.17 29.48 31.61 26.93 29.08 26.33L27.33 25.91L22.88 25.98V37.18H22.87Z" fill="#0043A6"/>
<path d="M22.87 21.21H20.11V27.89H22.87V21.21Z" fill="#C8E0FF"/>
<path d="M25.63 21.21H22.87V27.89H25.63V21.21Z" fill="#EFF5FF"/>
<path d="M22.87 8.18001H22.86L16.3 10.01V15.79C16.3 19.44 19.59 23.19 22.87 23.19C22.87 23.19 22.87 11.45 22.87 8.18001Z" fill="white"/>
<path d="M22.87 8.18001H22.88L29.44 10.01V15.79C29.44 19.44 26.15 23.19 22.87 23.19C22.87 23.19 22.87 11.45 22.87 8.18001Z" fill="white"/>
<path d="M16.48 17.71C15.36 17.71 14.45 16.8 14.45 15.68C14.45 14.56 15.36 13.65 16.48 13.65V17.71Z" fill="white"/>
<path d="M29.25 17.71C30.37 17.71 31.28 16.8 31.28 15.68C31.28 14.56 30.37 13.65 29.25 13.65V17.71Z" fill="white"/>
<path d="M29.74 14.73L28.33 14.34C27.05 13.71 25.9 12.67 25.23 11.49C24.4 12.35 23.44 13.07 22.38 13.62C20.83 14.42 19.1 14.83 17.37 14.83C17.37 14.83 15.97 14.86 15.99 14.74C15.85 14.72 15.14 14.32 15 14.3C15 14.3 12.04 10.09 12.6 6.75001C13.15 6.79001 17.96 4.91001 18.88 4.54001C22.39 3.13001 26.08 2.87001 27.41 5.99001C29.36 4.53001 31.29 9.02001 31.29 9.02001C31.29 9.02001 31.47 13.31 29.75 14.74L29.74 14.73Z" fill="#0043A6"/>
<path d="M21.19 30.6L18.41 25.91L20.11 24.41L22.91 27.88L21.19 30.6Z" fill="#378EFF"/>
<path d="M24.63 30.6L27.41 25.91L25.72 24.41L22.91 27.88L24.63 30.6Z" fill="#0866F5"/>
<path d="M40 31.76H6C4.89543 31.76 4 32.6554 4 33.76V41.76C4 42.8646 4.89543 43.76 6 43.76H40C41.1046 43.76 42 42.8646 42 41.76V33.76C42 32.6554 41.1046 31.76 40 31.76Z" fill="#378EFF"/>
<path d="M22.87 31.76H40C41.1 31.76 42 32.66 42 33.76V41.76C42 42.86 41.1 43.76 40 43.76H22.87V31.76Z" fill="#0866F5"/>
<path d="M22.87 33.41L24.49 36.19L27.64 36.88L25.5 39.28L25.81 42.48L22.87 41.19L19.92 42.48L20.24 39.28L18.1 36.88L21.24 36.19L22.87 33.41Z" fill="#EFF5FF"/>
<path d="M24.49 36.19L22.87 33.41V41.19L25.81 42.48L25.5 39.28L27.64 36.88L24.49 36.19Z" fill="white"/>
<path d="M33.24 34.56L34.45 36.63L36.8 37.15L35.2 38.94L35.44 41.33L33.24 40.37L31.04 41.33L31.28 38.94L29.68 37.15L32.03 36.63L33.24 34.56Z" fill="white"/>
<path d="M12.76 34.56L13.97 36.63L16.32 37.15L14.72 38.94L14.96 41.33L12.76 40.37L10.56 41.33L10.8 38.94L9.20001 37.15L11.55 36.63L12.76 34.56Z" fill="#EFF5FF"/>
</svg>
