<svg width="48" height="48" viewBox="0 0 48 48" fill="none" xmlns="http://www.w3.org/2000/svg">
<path d="M40 2.78999H16.93C14.7209 2.78999 12.93 4.58085 12.93 6.78999V41.07C12.93 43.2791 14.7209 45.07 16.93 45.07H40C42.2091 45.07 44 43.2791 44 41.07V6.78999C44 4.58085 42.2091 2.78999 40 2.78999Z" fill="#5DDFA9"/>
<path d="M38.7 15.38H5.91C4.80543 15.38 3.91 16.2754 3.91 17.38V28.22C3.91 29.3246 4.80543 30.22 5.91 30.22H38.7C39.8046 30.22 40.7 29.3246 40.7 28.22V17.38C40.7 16.2754 39.8046 15.38 38.7 15.38Z" fill="#0050C7"/>
<path d="M37.7 14.38H4.91C3.80543 14.38 2.91 15.2754 2.91 16.38V27.22C2.91 28.3246 3.80543 29.22 4.91 29.22H37.7C38.8046 29.22 39.7 28.3246 39.7 27.22V16.38C39.7 15.2754 38.8046 14.38 37.7 14.38Z" fill="#69AAFF"/>
<path d="M12.93 14.38H37.7C38.8 14.38 39.7 15.28 39.7 16.38V27.22C39.7 28.32 38.8 29.22 37.7 29.22H12.93V14.38Z" fill="#0866F5"/>
<path d="M36.29 15.98H6.32001C5.21544 15.98 4.32001 16.8754 4.32001 17.98V25.62C4.32001 26.7246 5.21544 27.62 6.32001 27.62H36.29C37.3946 27.62 38.29 26.7246 38.29 25.62V17.98C38.29 16.8754 37.3946 15.98 36.29 15.98Z" fill="#EFF5FF"/>
<path d="M33.2591 20H17.7406C16.7792 20 15.9998 20.8954 15.9998 22C15.9998 23.1046 16.7792 24 17.7406 24H33.2591C34.2205 24 34.9998 23.1046 34.9998 22C34.9998 20.8954 34.2205 20 33.2591 20Z" fill="#0866F5"/>
<path d="M6.32001 15.98H12.93V27.62H6.32001C5.22001 27.62 4.32001 26.72 4.32001 25.62V17.98C4.32001 16.88 5.22001 15.98 6.32001 15.98Z" fill="white"/>
<path d="M27.37 7H18.46C17.3554 7 16.46 7.89543 16.46 9C16.46 10.1046 17.3554 11 18.46 11H27.37C28.4746 11 29.37 10.1046 29.37 9C29.37 7.89543 28.4746 7 27.37 7Z" fill="#DDFFF1"/>
<path d="M36.29 35.95H18.46C17.3554 35.95 16.46 36.8454 16.46 37.95C16.46 39.0546 17.3554 39.95 18.46 39.95H36.29C37.3946 39.95 38.29 39.0546 38.29 37.95C38.29 36.8454 37.3946 35.95 36.29 35.95Z" fill="#DDFFF1"/>
</svg>
