<svg width="48" height="48" viewBox="0 0 48 48" fill="none" xmlns="http://www.w3.org/2000/svg">
<path d="M32.57 4H4.57001C3.46544 4 2.57001 4.89543 2.57001 6V42C2.57001 43.1046 3.46544 44 4.57001 44H32.57C33.6746 44 34.57 43.1046 34.57 42V6C34.57 4.89543 33.6746 4 32.57 4Z" fill="#5DDFA9"/>
<path d="M17.09 12.59H8.70001C7.59544 12.59 6.70001 13.4854 6.70001 14.59C6.70001 15.6946 7.59544 16.59 8.70001 16.59H17.09C18.1946 16.59 19.09 15.6946 19.09 14.59C19.09 13.4854 18.1946 12.59 17.09 12.59Z" fill="white"/>
<path d="M12.03 20.59H8.70001C7.59544 20.59 6.70001 21.4854 6.70001 22.59C6.70001 23.6946 7.59544 24.59 8.70001 24.59H12.03C13.1346 24.59 14.03 23.6946 14.03 22.59C14.03 21.4854 13.1346 20.59 12.03 20.59Z" fill="white"/>
<path d="M15.46 28.59H8.70001C7.59544 28.59 6.70001 29.4854 6.70001 30.59C6.70001 31.6946 7.59544 32.59 8.70001 32.59H15.46C16.5646 32.59 17.46 31.6946 17.46 30.59C17.46 29.4854 16.5646 28.59 15.46 28.59Z" fill="white"/>
<path d="M32.57 35.06C39.5619 35.06 45.23 29.3919 45.23 22.4C45.23 15.4081 39.5619 9.73999 32.57 9.73999C25.578 9.73999 19.91 15.4081 19.91 22.4C19.91 29.3919 25.578 35.06 32.57 35.06Z" fill="#0866F5"/>
<path d="M32.57 9.74999C32.57 9.74999 32.55 9.74999 32.54 9.74999V35.06C32.54 35.06 32.56 35.06 32.57 35.06C39.56 35.06 45.23 29.39 45.23 22.4C45.23 15.41 39.56 9.73999 32.57 9.73999V9.74999Z" fill="#0050C7"/>
<path d="M32.57 32.16C37.9603 32.16 42.33 27.7903 42.33 22.4C42.33 17.0097 37.9603 12.64 32.57 12.64C27.1797 12.64 22.81 17.0097 22.81 22.4C22.81 27.7903 27.1797 32.16 32.57 32.16Z" fill="#83F8C7"/>
<path d="M32.57 12.64C32.57 12.64 32.54 12.64 32.52 12.64V32.16C32.52 32.16 32.55 32.16 32.57 32.16C37.96 32.16 42.33 27.79 42.33 22.4C42.33 17.01 37.96 12.64 32.57 12.64Z" fill="#5DDFA9"/>
<path d="M25.78 20.47L31.5 23.54L38.33 17.21C38.61 16.95 39.05 16.97 39.3 17.25C39.52 17.49 39.54 17.84 39.37 18.1L33.34 27.25C32.77 28.25 31.32 28.4 30.57 27.52L25.1 21.32C24.69 20.88 25.26 20.18 25.77 20.47H25.78Z" fill="#0866F5"/>
</svg>
