<svg width="48" height="48" viewBox="0 0 48 48" fill="none" xmlns="http://www.w3.org/2000/svg">
<path d="M36 1.88H12C9.79086 1.88 8 3.67087 8 5.88V33.88C8 36.0891 9.79086 37.88 12 37.88H36C38.2091 37.88 40 36.0891 40 33.88V5.88C40 3.67087 38.2091 1.88 36 1.88Z" fill="#ADFADA"/>
<path d="M35.09 5.89001H12.74C11.6354 5.89001 10.74 6.78545 10.74 7.89001C10.74 8.99458 11.6354 9.89002 12.74 9.89002H35.09C36.1946 9.89002 37.09 8.99458 37.09 7.89001C37.09 6.78545 36.1946 5.89001 35.09 5.89001Z" fill="#26D496"/>
<path d="M29.45 13.89H12.74C11.6354 13.89 10.74 14.7854 10.74 15.89C10.74 16.9946 11.6354 17.89 12.74 17.89H29.45C30.5546 17.89 31.45 16.9946 31.45 15.89C31.45 14.7854 30.5546 13.89 29.45 13.89Z" fill="#26D496"/>
<path d="M38 1.88H10C8.89543 1.88 8 2.77544 8 3.88V35.88C8 36.9846 8.89543 37.88 10 37.88H38C39.1046 37.88 40 36.9846 40 35.88V3.88C40 2.77544 39.1046 1.88 38 1.88Z" fill="#ADFADA"/>
<path d="M10 1.88H24V37.88H10C8.9 37.88 8 36.98 8 35.88V3.88C8 2.78 8.9 1.88 10 1.88Z" fill="#DDFFF1"/>
<path d="M24 5.89001H35.09C36.19 5.89001 37.09 6.79001 37.09 7.89001C37.09 8.99001 36.19 9.89002 35.09 9.89002H24V5.89001Z" fill="#00A369"/>
<path d="M12.74 5.89001H24V9.89002H12.74C11.64 9.89002 10.74 8.99001 10.74 7.89001C10.74 6.79001 11.64 5.89001 12.74 5.89001Z" fill="#26D496"/>
<path d="M12.74 13.89H24V17.89H12.74C11.64 17.89 10.74 16.99 10.74 15.89C10.74 14.79 11.64 13.89 12.74 13.89Z" fill="#26D496"/>
<path d="M24 13.89H29.44C30.54 13.89 31.44 14.79 31.44 15.89C31.44 16.99 30.54 17.89 29.44 17.89H24V13.89Z" fill="#00A369"/>
<path d="M32.98 32.57C32.75 27.33 28.83 23.91 23.65 23.91C18.47 23.91 10.57 27.84 13.05 36.53C9.53999 33.62 5.42999 36.67 5.42999 40.2C5.42999 43.73 7.61999 45.74 11.15 45.74H36.91C40.02 45.74 43.47 42.69 43.58 38.15C43.69 33.62 38.79 29.63 32.98 32.57Z" fill="#0050C7"/>
<path d="M31.98 31.12C31.75 25.88 27.83 22.46 22.65 22.46C17.47 22.46 9.56999 26.39 12.05 35.08C8.53999 32.17 4.42999 35.22 4.42999 38.75C4.42999 42.28 6.61999 44.29 10.15 44.29H35.91C39.02 44.29 42.47 41.24 42.58 36.7C42.69 32.17 37.79 28.18 31.98 31.12Z" fill="#0866F5"/>
<path d="M24 22.55C23.56 22.5 23.11 22.46 22.65 22.46C17.62 22.46 9.56999 26.39 12.05 35.08C8.53999 32.17 4.42999 35.22 4.42999 38.75C4.42999 42.28 6.61999 44.29 10.15 44.29H24.01V22.55H24Z" fill="#378EFF"/>
</svg>
