<svg width="48" height="48" viewBox="0 0 48 48" fill="none" xmlns="http://www.w3.org/2000/svg">
<path d="M39.8974 4H8.10256C5.83678 4 4 5.83678 4 8.10256V39.8974C4 42.1632 5.83678 44 8.10256 44H39.8974C42.1632 44 44 42.1632 44 39.8974V8.10256C44 5.83678 42.1632 4 39.8974 4Z" fill="#ADFADA"/>
<path d="M4 27.0769H44V39.8974C44 42.1641 42.1641 44 39.8974 44H8.10256C5.8359 44 4 42.1641 4 39.8974V27.0769Z" fill="#83F8C7"/>
<path d="M15.9384 15.5795H11.5076C10.3747 15.5795 9.45631 16.4979 9.45631 17.6307V34.0102C9.45631 35.1431 10.3747 36.0615 11.5076 36.0615H15.9384C17.0713 36.0615 17.9896 35.1431 17.9896 34.0102V17.6307C17.9896 16.4979 17.0713 15.5795 15.9384 15.5795Z" fill="#0866F5"/>
<path d="M9.45631 27.0769H17.9896V34.0103C17.9896 35.1385 17.0666 36.0615 15.9384 36.0615H11.5076C10.3794 36.0615 9.45631 35.1385 9.45631 34.0103V27.0769Z" fill="#0050C7"/>
<path d="M30.0098 36.0615H24.8303C23.2918 36.0615 21.8046 35.5077 20.6354 34.5025L17.9893 32.2051V20.2769L22.3687 13.2205C23.0149 12.1743 24.2867 11.6923 25.4662 12.0513C26.8303 12.4615 27.6508 13.8564 27.3431 15.241L26.42 19.4359C26.3277 19.8666 26.6559 20.2769 27.0969 20.2769H35.7123C37.579 20.2769 38.9328 22.041 38.4508 23.8461L36.5226 31.0769C35.7328 34.0205 33.0662 36.0718 30.0098 36.0718V36.0615Z" fill="#378EFF"/>
<path d="M17.9893 27.0769V32.2051L20.6354 34.5026C21.7944 35.5077 23.2816 36.0615 24.8303 36.0615H30.0098C33.0559 36.0615 35.7328 34.0103 36.5226 31.0667L37.5893 27.0769H17.9893Z" fill="#0866F5"/>
</svg>
