<svg width="48" height="48" viewBox="0 0 48 48" fill="none" xmlns="http://www.w3.org/2000/svg">
<path d="M33.33 2.62H6.56C4.35086 2.62 2.56 4.41086 2.56 6.62V33.39C2.56 35.5991 4.35086 37.39 6.56 37.39H33.33C35.5391 37.39 37.33 35.5991 37.33 33.39V6.62C37.33 4.41086 35.5391 2.62 33.33 2.62Z" fill="#5DDFA9"/>
<path d="M11.74 14.29C9.77 22.66 9.85 24.57 10.6 27.07C10.92 28.14 11.59 29.08 12.56 29.64C13.97 30.46 16.42 31.45 20.05 31.45C22.51 31.45 24.55 30.91 26.11 30.25C28.34 29.31 29.62 26.96 29.28 24.57C28.8 21.25 28.36 18.26 27.78 13.08L11.74 14.29Z" fill="#006F4A"/>
<path d="M19.72 23.56H17.63V32.4H19.72V23.56Z" fill="#C8E0FF"/>
<path d="M21.81 23.56H19.72V32.4H21.81V23.56Z" fill="#EFF5FF"/>
<path d="M12.72 12.19V20.23H12.78C13.07 23.83 16.05 26.67 19.72 26.67C23.39 26.67 26.38 23.83 26.66 20.23H26.72V12.19H12.72Z" fill="white"/>
<path d="M15.15 30.46C13.62 31.31 12.59 32.84 12.38 34.57L11.98 37.38H19.66V32.39L17.63 29.07L15.15 30.45V30.46Z" fill="#378EFF"/>
<path d="M19.71 12.19H12.72V20.23H12.78C13.07 23.83 16.04 26.67 19.72 26.67V12.19H19.71Z" fill="white"/>
<path d="M21.69 29.08L19.66 32.4V37.39H27.34L26.94 34.58C26.73 32.84 25.7 31.32 24.17 30.47L21.69 29.09V29.08Z" fill="#0866F5"/>
<path d="M15.3 6.86C15.3 6.86 18.12 5.02 22.63 5.77C27.14 6.52 28.18 11.02 28.22 13.93C28.29 18.65 29.04 19.13 29.04 19.13C21.69 20.52 17.79 13 14.94 13.85C15.75 17.37 14.48 19.43 13.07 18.51C11.64 19.67 11.09 16.48 11.09 16.48C10.74 15.01 10.42 13.98 10.4 12.42C10.35 7.61 15.31 6.86 15.31 6.86H15.3Z" fill="#006F4A"/>
<path d="M13.26 20.86C12.36 20.98 11.41 20.61 10.83 19.9C10.25 19.19 10.07 18.19 10.36 17.33C10.55 16.76 10.98 16.24 11.56 16.1C12.14 15.96 12.85 16.31 12.94 16.9L13.26 20.86Z" fill="white"/>
<path d="M26.26 20.86C27.16 20.98 28.11 20.61 28.69 19.9C29.27 19.19 29.45 18.19 29.16 17.33C28.97 16.76 28.54 16.24 27.96 16.1C27.38 15.96 26.67 16.31 26.58 16.9L26.26 20.86Z" fill="white"/>
<path d="M19.7604 31.8237L17.6828 28.9206C17.5735 28.7679 17.3611 28.7327 17.2084 28.842L15.9154 29.7673C15.7627 29.8766 15.7275 30.089 15.8368 30.2417L17.9145 33.1448C18.0238 33.2975 18.2361 33.3327 18.3888 33.2234L19.6818 32.2981C19.8345 32.1888 19.8697 31.9764 19.7604 31.8237Z" fill="#37B982"/>
<path d="M21.2666 33.1425L23.3442 30.2394C23.4535 30.0867 23.4183 29.8743 23.2656 29.765L21.9726 28.8397C21.8199 28.7304 21.6076 28.7656 21.4983 28.9183L19.4206 31.8214C19.3113 31.9741 19.3465 32.1865 19.4992 32.2958L20.7922 33.2211C20.9449 33.3304 21.1573 33.2952 21.2666 33.1425Z" fill="#37B982"/>
<path d="M37.56 34.23V45.84C42.46 43.71 46.44 40.8 46.44 35.58C46.44 30.36 38.74 29.29 37.56 34.23Z" fill="#0866F5"/>
<path d="M28.68 35.58C28.68 40.81 32.66 43.71 37.56 45.84V34.23C36.37 29.29 28.68 30.35 28.68 35.58Z" fill="#378EFF"/>
</svg>
