<svg width="48" height="48" viewBox="0 0 48 48" fill="none" xmlns="http://www.w3.org/2000/svg">
<path d="M24.45 38.38L34.33 46.84V38.38H24.45Z" fill="#0866F5"/>
<path d="M39.86 40H10.06C7.75 40 5.85 38.34 5.73 36.21L4.23 10.19C4.1 8.01 5.89 6.15 8.25 5.99L41.12 3.78C43.72 3.61 45.9 5.57 45.77 7.98L44.19 36.2C44.07 38.33 42.17 39.99 39.86 39.99V40Z" fill="#0866F5"/>
<path d="M37.86 38.31H8.06C5.75 38.31 3.85 36.65 3.73 34.52L2.23 8.49C2.1 6.31 3.89 4.45 6.25 4.29L39.12 2.09C41.72 1.92 43.9 3.88 43.77 6.29L42.19 34.51C42.07 36.64 40.17 38.3 37.86 38.3V38.31Z" fill="#83F8C7"/>
<path d="M18.45 3.47001V38.31H37.85C40.16 38.31 42.06 36.64 42.18 34.52L43.76 6.30001C43.89 3.90001 41.72 1.93001 39.11 2.10001L18.44 3.48001L18.45 3.47001Z" fill="#5DDFA9"/>
<path d="M12.26 11H18.45V15H12.26C11.16 15 10.26 14.1 10.26 13C10.26 11.9 11.16 11 12.26 11Z" fill="#378EFF"/>
<path d="M18.45 11H36.66C37.76 11 38.66 11.9 38.66 13C38.66 14.1 37.76 15 36.66 15H18.45V11Z" fill="#0866F5"/>
<path d="M12.26 18.4H18.45V22.4H12.26C11.16 22.4 10.26 21.5 10.26 20.4C10.26 19.3 11.16 18.4 12.26 18.4Z" fill="#378EFF"/>
<path d="M18.45 18.4H27.84C28.94 18.4 29.84 19.3 29.84 20.4C29.84 21.5 28.94 22.4 27.84 22.4H18.45V18.4Z" fill="#0866F5"/>
<path d="M12.26 25.8H18.45V29.8H12.26C11.16 29.8 10.26 28.9 10.26 27.8C10.26 26.7 11.16 25.8 12.26 25.8Z" fill="#378EFF"/>
<path d="M18.45 25.8H32.32C33.42 25.8 34.32 26.7 34.32 27.8C34.32 28.9 33.42 29.8 32.32 29.8H18.45V25.8Z" fill="#0866F5"/>
<path d="M22.45 36.69L32.33 45.15V36.69H22.45Z" fill="#5DDFA9"/>
</svg>
