<svg width="48" height="48" viewBox="0 0 48 48" fill="none" xmlns="http://www.w3.org/2000/svg">
<path d="M40 4H8C5.79086 4 4 5.79086 4 8V40C4 42.2091 5.79086 44 8 44H40C42.2091 44 44 42.2091 44 40V8C44 5.79086 42.2091 4 40 4Z" fill="#EDF4FF"/>
<path d="M24.0898 4H39.9998C42.2098 4 43.9998 5.79 43.9998 8V40C43.9998 42.21 42.2098 44 39.9998 44H24.0898V4Z" fill="#C8E0FF"/>
<path d="M29.2799 18.43H18.8999V33.78H29.2799V18.43Z" fill="#5DDFA9"/>
<path d="M29.2799 18.43H24.0899V33.78H29.2799V18.43Z" fill="#37B982"/>
<path d="M29.2799 18.43L26.9399 14.37H24.0899V18.43H29.2799Z" fill="#66E0B5"/>
<path d="M18.8999 18.43H24.0899V14.37H21.2399L18.8999 18.43Z" fill="#EFFFFA"/>
<path d="M26.9399 14.37L24.8599 10.76C24.6899 10.47 24.3899 10.32 24.0899 10.32V14.38H26.9399V14.37Z" fill="#0050C7"/>
<path d="M21.2399 14.37H24.0899V10.31C23.7899 10.31 23.4899 10.46 23.3199 10.75L21.2399 14.36V14.37Z" fill="#0866F5"/>
<path d="M29.0898 33.68H24.0898V43.99H29.0898V36.75C29.0898 36.19 28.6398 35.73 28.0898 35.73H29.0898C29.6398 35.73 30.0898 35.27 30.0898 34.71C30.0898 34.15 29.6398 33.69 29.0898 33.69V33.68Z" fill="#378EFF"/>
<path d="M19.0898 33.68C18.5398 33.68 18.0898 34.14 18.0898 34.7C18.0898 35.26 18.5398 35.72 19.0898 35.72H20.0898C19.5398 35.72 19.0898 36.18 19.0898 36.74V43.98H24.0898V33.67H19.0898V33.68Z" fill="#378EFF"/>
<path d="M20.0898 43.86V40.01C20.0898 39.46 19.6398 39.01 19.0898 39.01V43.98H20.0698C20.0698 43.98 20.0898 43.9 20.0898 43.86Z" fill="#0050C7"/>
<path d="M23.0898 43.86V40.01C23.0898 39.46 23.5398 39.01 24.0898 39.01V43.98H23.1098C23.1098 43.98 23.0898 43.9 23.0898 43.86Z" fill="#0050C7"/>
<path d="M25.0898 43.86V40.01C25.0898 39.46 24.6398 39.01 24.0898 39.01V43.98H25.0698C25.0698 43.98 25.0898 43.9 25.0898 43.86Z" fill="#0050C7"/>
<path d="M28.0798 43.88V40.03C28.0798 39.48 28.5298 39.03 29.0798 39.03V44H28.0998C28.0998 44 28.0798 43.92 28.0798 43.88Z" fill="#0050C7"/>
</svg>
