<svg width="48" height="48" viewBox="0 0 48 48" fill="none" xmlns="http://www.w3.org/2000/svg">
<path d="M44 25.62C44 35.7 31.87 44 24 44V4L44 9.89V25.62Z" fill="#5DDFA9"/>
<path d="M4 25.62C4 35.7 16.13 44 24 44V4L4 9.89V25.62Z" fill="#83F8C7"/>
<path d="M32 19.89H16C14.8954 19.89 14 20.7854 14 21.89V35.89C14 36.9946 14.8954 37.89 16 37.89H32C33.1046 37.89 34 36.9946 34 35.89V21.89C34 20.7854 33.1046 19.89 32 19.89Z" fill="#0866F5"/>
<path d="M16 19.89H24V37.89H16C14.9 37.89 14 36.99 14 35.89V21.89C14 20.79 14.9 19.89 16 19.89Z" fill="#378EFF"/>
<path d="M26 26.89C26 25.7854 25.1046 24.89 24 24.89C22.8954 24.89 22 25.7854 22 26.89V30.89C22 31.9946 22.8954 32.89 24 32.89C25.1046 32.89 26 31.9946 26 30.89V26.89Z" fill="white"/>
<path d="M24 24.89C22.9 24.89 22 25.79 22 26.89V30.89C22 31.99 22.9 32.89 24 32.89V24.89Z" fill="#EFF5FF"/>
<path d="M16 19.89H20V18.12C20 15.91 21.79 14.12 24 14.12C26.21 14.12 28 15.91 28 18.12V19.89H32V18.12C32 13.71 28.41 10.12 24 10.12C19.59 10.12 16 13.71 16 18.12V19.89Z" fill="#0050C7"/>
<path d="M24 10.11C19.59 10.11 16 13.7 16 18.11V19.88H20V18.11C20 15.9 21.79 14.11 24 14.11V10.11Z" fill="#0050C7"/>
</svg>
