<svg width="48" height="48" viewBox="0 0 48 48" fill="none" xmlns="http://www.w3.org/2000/svg">
<path d="M41 22.07H7C4.79086 22.07 3 23.8609 3 26.07V41.7C3 43.9091 4.79086 45.7 7 45.7H41C43.2091 45.7 45 43.9091 45 41.7V26.07C45 23.8609 43.2091 22.07 41 22.07Z" fill="#69AAFF"/>
<path d="M41 14.06H7C4.79086 14.06 3 15.8509 3 18.06V40.06C3 42.2691 4.79086 44.06 7 44.06H41C43.2091 44.06 45 42.2691 45 40.06V18.06C45 15.8509 43.2091 14.06 41 14.06Z" fill="#C8E0FF"/>
<path d="M45 27.67C40.58 27.67 38.66 31.1 38.54 33.06C32.73 31.51 28.07 36.13 29.2 40.22C26.72 38.23 20.43 39.95 20.43 42.66C18.62 40.22 15.31 40.35 12.79 42.44C12.79 38.34 10.34 38.33 10.21 38.35C12.86 34.56 7.53 29.38 3 32.28V40.06C3 40.34 3.03 40.61 3.08 40.87C3.47 42.63 4.53 44.06 7 44.06H41C43.21 44.06 45 42.27 45 40.06V27.67Z" fill="white"/>
<path d="M20.98 32.72L15.31 39.77C14.93 40.24 14.16 39.97 14.16 39.37V33.76C14.16 32.04 14.65 30.36 15.56 28.9L20.97 20.33V32.73L20.98 32.72Z" fill="#37B982"/>
<path d="M27.02 32.93L32.69 39.98C33.07 40.45 33.84 40.18 33.84 39.58V33.97C33.84 32.25 33.35 30.57 32.44 29.11L27.03 20.54V32.94L27.02 32.93Z" fill="#37B982"/>
<path d="M18.61 10.31C16.86 14.38 16.37 18.96 17.38 23.43L19.97 34.87C20.07 35.8 20.86 36.5 21.8 36.5H23.99V10.31H18.61Z" fill="#0866F5"/>
<path d="M29.36 10.31H23.98V36.51H26.17C27.11 36.51 27.89 35.81 28 34.88L30.59 23.44C31.6 18.97 31.12 14.38 29.36 10.32V10.31Z" fill="#0050C7"/>
<path d="M23.99 2.84C21.63 4.94 19.82 7.5 18.61 10.31H23.99V2.84Z" fill="#5DDFA9"/>
<path d="M23.99 2.84V10.31H29.37C28.16 7.51 26.35 4.94 23.99 2.84Z" fill="#37B982"/>
<path d="M24.2 25.46H23.79C23.2377 25.46 22.79 25.9077 22.79 26.46V38.95C22.79 39.5023 23.2377 39.95 23.79 39.95H24.2C24.7523 39.95 25.2 39.5023 25.2 38.95V26.46C25.2 25.9077 24.7523 25.46 24.2 25.46Z" fill="#37B982"/>
<path d="M24 25.46H24.21C24.76 25.46 25.21 25.91 25.21 26.46V38.95C25.21 39.5 24.76 39.95 24.21 39.95H24V25.46Z" fill="#008B5D"/>
<path d="M24 20.02C26.3417 20.02 28.24 18.1217 28.24 15.78C28.24 13.4383 26.3417 11.54 24 11.54C21.6583 11.54 19.76 13.4383 19.76 15.78C19.76 18.1217 21.6583 20.02 24 20.02Z" fill="#008B5D"/>
<path d="M24 18.92C25.7342 18.92 27.14 17.5142 27.14 15.78C27.14 14.0458 25.7342 12.64 24 12.64C22.2658 12.64 20.86 14.0458 20.86 15.78C20.86 17.5142 22.2658 18.92 24 18.92Z" fill="white"/>
</svg>
